<svg width="20" height="20" viewBox="0 0 20 20" fill="none" xmlns="http://www.w3.org/2000/svg">
<path d="M18.3334 3.33252C17.6834 3.71835 16.3792 4.24419 15.6125 4.39585C15.59 4.40169 15.5717 4.40919 15.55 4.41502C14.8725 3.74669 13.9442 3.33252 12.9167 3.33252C10.8459 3.33252 9.16669 5.01169 9.16669 7.08252C9.16669 7.19169 9.15752 7.39252 9.16669 7.49919C6.37252 7.49919 4.24585 6.03585 2.72085 4.16585C2.55502 4.58252 2.48252 5.24085 2.48252 5.85919C2.48252 7.02669 3.39502 8.17335 4.81585 8.88419C4.55419 8.95169 4.26585 9.00002 3.96585 9.00002C3.48169 9.00002 2.96919 8.87252 2.50002 8.48585C2.50002 8.50002 2.50002 8.51335 2.50002 8.52835C2.50002 10.16 4.23169 11.2709 5.77169 11.58C5.45919 11.7642 4.82919 11.7825 4.52169 11.7825C4.30502 11.7825 3.53835 11.6834 3.33335 11.645C3.76169 12.9825 5.30669 13.7342 6.77919 13.7609C5.62752 14.6642 4.82835 14.9992 2.47002 14.9992H1.66669C3.15669 15.9542 5.05419 16.6667 6.95585 16.6667C13.1475 16.6667 16.6667 11.9475 16.6667 7.49919C16.6667 7.42752 16.665 7.27752 16.6625 7.12669C16.6625 7.11169 16.6667 7.09752 16.6667 7.08252C16.6667 7.06002 16.66 7.03835 16.66 7.01585C16.6575 6.90252 16.655 6.79669 16.6525 6.74169C17.3109 6.26669 17.8817 5.67419 18.3334 4.99919C17.7292 5.26752 17.0809 5.44752 16.4 5.52919C17.095 5.11252 18.0825 4.11919 18.3334 3.33252Z" fill="white"/>
</svg>
